<svg viewBox="0 0 260.51 138.14" xmlns="http://www.w3.org/2000/svg" xmlns:xlink="http://www.w3.org/1999/xlink" id="Layer_2" overflow="hidden"><defs></defs><g id="Layer_1-2"><path d="M239.07 65.38C239.91 64.89 240.52 64.09 240.76 63.13 240.99 62.18 240.82 61.18 240.3 60.36 235.23 52.39 229.28 44.96 222.6 38.25 215.92 31.55 208.51 25.57 200.57 20.46 199.75 19.93 198.75 19.76 197.8 19.99 196.85 20.22 196.04 20.83 195.55 21.68L169.33 67.11C168.53 68.49 168.75 70.23 169.86 71.38 175.85 77.61 180.84 84.69 184.68 92.4 185.12 93.28 185.9 93.95 186.85 94.23 187.19 94.33 187.53 94.39 187.88 94.39 188.5 94.39 189.12 94.23 189.67 93.91L239.09 65.37 239.09 65.37Z" fill="#2DB56E"/><path d="M192.11 16.7C191.84 15.76 191.19 14.98 190.32 14.53 182.07 10.24 173.34 6.83 164.4 4.41 155.21 1.91 145.7 0.44 136.12 0.02 135.15-0.02 134.2 0.33 133.49 1.01 132.78 1.69 132.39 2.62 132.39 3.59L132.39 46.03C132.39 47.58 133.39 48.95 134.86 49.43 144.53 52.57 153.48 57.4 161.47 63.77 162.11 64.28 162.89 64.55 163.7 64.55 163.91 64.55 164.14 64.52 164.37 64.49 165.39 64.3 166.29 63.67 166.81 62.76L191.79 19.49C192.27 18.65 192.39 17.64 192.12 16.7L192.12 16.7Z" fill="#2DB56E"/><path d="M123.82 46.63C124.87 46.82 125.94 46.54 126.76 45.86 127.57 45.18 128.05 44.17 128.05 43.11L128.05 3.58C128.05 2.61 127.65 1.67 126.95 1 126.24 0.32 125.29-0.03 124.32 0.01 114.79 0.44 105.31 1.9 96.15 4.38 87.23 6.8 78.53 10.17 70.32 14.43 69.45 14.88 68.81 15.66 68.53 16.6 68.25 17.54 68.37 18.55 68.87 19.39L84.25 46.02C84.9 47.14 86.09 47.81 87.35 47.81 87.63 47.81 87.92 47.78 88.2 47.71 94.82 46.08 101.66 45.26 108.55 45.26 113.7 45.26 118.84 45.72 123.83 46.64L123.83 46.64Z" fill="#2DB56E"/><path d="M65.08 21.56C64.59 20.72 63.77 20.11 62.83 19.87 61.89 19.63 60.88 19.81 60.06 20.33 52.2 25.36 44.85 31.26 38.22 37.86 31.59 44.46 25.67 51.78 20.59 59.63 20.06 60.45 19.89 61.45 20.12 62.42 20.35 63.37 20.96 64.19 21.81 64.68L39.97 75.16C40.53 75.48 41.15 75.64 41.76 75.64 42.77 75.64 43.76 75.21 44.46 74.41 53.4 64.14 64.8 56.08 77.42 51.13 78.39 50.75 79.14 49.96 79.49 48.98 79.84 48 79.73 46.91 79.21 46.01L65.11 21.56 65.11 21.56Z" fill="#014637"/><path d="M36.5 78.19 19.59 68.42C18.75 67.93 17.74 67.81 16.8 68.08 15.86 68.35 15.08 68.99 14.63 69.86 10.36 78.02 6.95 86.65 4.51 95.52 2 104.61 0.49 114.02 0 123.5-0.05 124.48 0.31 125.44 0.98 126.15 1.65 126.86 2.59 127.26 3.57 127.26L20.19 127.26C22.07 127.26 23.63 125.81 23.76 123.95 24.81 109.45 29.63 95.38 37.69 83.27 38.24 82.45 38.42 81.44 38.2 80.47 37.97 79.52 37.36 78.68 36.51 78.19L36.51 78.19ZM21.42 100.08C19.17 106.55 17.67 113.27 16.93 120.11L7.39 120.11C8.63 104.85 12.62 90.22 19.29 76.51L29.69 82.52C26.32 88.06 23.55 93.96 21.42 100.08L21.42 100.08Z" fill="#014637"/><path d="M260.5 125.19C260.13 115.55 258.7 105.98 256.25 96.72 253.86 87.7 250.48 78.92 246.2 70.61 245.75 69.74 244.97 69.09 244.03 68.82 243.09 68.55 242.08 68.66 241.23 69.16L190.56 98.42C189.08 99.27 188.41 101.06 188.97 102.67 191.5 110.04 192.99 117.72 193.42 125.52 193.52 127.42 195.1 128.9 196.99 128.9L256.95 128.9C257.92 128.9 258.86 128.5 259.52 127.81 260.2 127.1 260.56 126.15 260.52 125.19L260.51 125.19Z" fill="#2DB56E"/><path d="M154.46 73.17 99.15 116.53C96.21 118.79 94.52 122.27 94.53 126.08 94.53 129.88 96.22 133.33 99.16 135.59 101.36 137.31 103.99 138.15 106.58 138.15 110.16 138.15 113.72 136.57 116.11 133.53L159.48 78.21C160.6 76.79 160.48 74.75 159.19 73.47 157.92 72.18 155.88 72.06 154.46 73.18L154.46 73.18Z" fill="#2DB56E"/></g></svg>